
        <svg xmlns="http://www.w3.org/2000/svg" xmlns:xlink="http://www.w3.org/1999/xlink" version="1.1" width="3164.0356559384145" height="547.26891602201" viewBox="0 0 3164.0356559384145 547.26891602201">
			
			<g transform="scale(8.201782796920734) translate(10, 10)">
				<defs id="SvgjsDefs1670"><linearGradient id="SvgjsLinearGradient1675"><stop id="SvgjsStop1676" stop-color="#2d388a" offset="0"/><stop id="SvgjsStop1677" stop-color="#00aeef" offset="1"/></linearGradient><linearGradient id="SvgjsLinearGradient1678"><stop id="SvgjsStop1679" stop-color="#2d388a" offset="0"/><stop id="SvgjsStop1680" stop-color="#00aeef" offset="1"/></linearGradient></defs><g id="SvgjsG1671" featureKey="symbolFeature-0" transform="matrix(0.9688061383885223,0,0,0.9688061383885223,-13.596607311742158,-25.561907682548828)" fill="#000"><title xmlns="http://www.w3.org/2000/svg">28-08-2015 - code</title><desc xmlns="http://www.w3.org/2000/svg">Created with Sketch.</desc><g xmlns="http://www.w3.org/2000/svg" stroke="none" stroke-width="1" fill-rule="evenodd" xmlns:sketch="http://www.bohemiancoding.com/sketch/ns" sketch:type="MSPage"><g sketch:type="MSArtboardGroup"><path d="M83.9420361,50.0031761 C84.0455988,49.2560782 83.807666,48.4723838 83.2325201,47.8972379 L68.0203173,32.6850351 C67.0506811,31.7153989 65.4688221,31.7109131 64.4959279,32.6838072 C63.5162509,33.6634843 63.5235834,35.2346243 64.4971558,36.2081966 L78.2881642,49.9992051 L64.4995875,63.7877818 C63.5299513,64.757418 63.5254654,66.339277 64.4983596,67.3121712 C65.4780367,68.2918482 67.0491767,68.2845157 68.022749,67.3109433 L83.2349518,52.0987406 C83.8046831,51.5290093 84.0412048,50.7479135 83.9420361,50.0031761 L83.9420361,50.0031761 Z M14.0579639,50.0031761 C13.9544012,49.2560782 14.192334,48.4723838 14.7674799,47.8972379 L29.9796827,32.6850351 C30.9493189,31.7153989 32.5311779,31.7109131 33.5040721,32.6838072 C34.4837491,33.6634843 34.4764166,35.2346243 33.5028442,36.2081966 L19.7118358,49.9992051 L33.5004125,63.7877818 C34.4700487,64.757418 34.4745346,66.339277 33.5016404,67.3121712 C32.5219633,68.2918482 30.9508233,68.2845157 29.977251,67.3109433 L14.7650482,52.0987406 C14.1953169,51.5290093 13.9587952,50.7479135 14.0579639,50.0031761 L14.0579639,50.0031761 Z M54.9901856,27.6944914 C55.3662544,26.661251 56.5053113,26.1272656 57.5505036,26.5076845 C58.5884594,26.8854695 59.1258109,28.0271719 58.7489561,29.062572 L43.0098144,72.3055086 C42.6337456,73.338749 41.4946887,73.8727344 40.4494964,73.4923155 C39.4115406,73.1145305 38.8741891,71.9728281 39.2510439,70.937428 L54.9901856,27.6944914 Z" sketch:type="MSShapeGroup"/></g></g></g><g id="SvgjsG1672" featureKey="nameFeature-0" transform="matrix(0.5563550235816761,0,0,0.5563550235816761,87.9999994694185,8.36824648471541)" fill="#000"><path d="M5.64 11.96 l11.6 21.8 l4.84 -8.96 l2.32 15.2 l1.44 0 l-3 -19.68 l-5.6 10.36 l-9.96 -18.72 l-1.64 0 z M18.4 22.72 l-1.88 3.48 l0.84 1.52 l2.64 -5 l3.52 -6.56 l0.12 -0.28 l1.32 -2.44 l0.96 0 l0.12 0.96 l3 19.52 l0.68 4.6 l-1.32 0 l-3.04 -19.8 l-0.36 -2.4 l-1.12 2.12 l3.2 20.96 l-0.04 0 l0.12 0.6 l4.24 0 l-4.24 -28.04 l-3.08 0 z M15.96 34.12 l-11.48 -21.64 l-0.24 -0.4 l-4.24 27.92 l7 0 l1.28 -8.28 l-0.84 -1.56 l-0.32 -0.6 l-1.36 8.96 l-4.08 0 l3.36 -21.92 l12.24 23.04 l4.36 -8.28 l-0.32 -2.12 l-0.04 -0.28 l-4 7.6 z M6.48 25.240000000000002 l7.84 14.76 l1.64 0 l-10.24 -19.24 l-2.6 16.72 l1.44 0 z M53.324999999999996 40 c-2.44 0 -4.76 -0.64 -6.96 -1.92 c-4.4 -2.52 -7.12 -7.16 -7.12 -12.12 c0 -2.48 0.64 -4.8 1.92 -7 c2.52 -4.32 7.24 -7.04 12.16 -7.04 c2.44 0 4.8 0.64 7 1.88 c4.4 2.56 7.04 7.32 7.04 12.16 c0 2.44 -0.64 4.72 -1.88 6.92 c-2.56 4.4 -7.2 7.12 -12.16 7.12 z M53.324999999999996 13.32 c-2.28 0 -4.4 0.56 -6.32 1.68 c-3.88 2.24 -6.28 6.36 -6.28 10.96 c0 2.28 0.56 4.4 1.68 6.32 c2.24 3.88 6.32 6.28 10.92 6.28 c2.28 0 4.4 -0.56 6.36 -1.68 c3.88 -2.24 6.28 -6.32 6.28 -10.92 c0 -2.28 -0.56 -4.4 -1.68 -6.36 c-2.24 -3.88 -6.48 -6.28 -10.96 -6.28 z M53.324999999999996 37.28 c-2 0 -3.88 -0.52 -5.68 -1.52 c-3.56 -2.04 -5.76 -5.76 -5.76 -9.8 c0 -2.04 0.52 -3.92 1.52 -5.68 c2.04 -3.52 5.64 -5.6 9.92 -5.6 c2.16 0 4.12 0.48 5.84 1.44 c3.44 1.92 5.44 5.52 5.44 9.84 c0 2.04 -0.48 3.92 -1.44 5.64 c-1.96 3.48 -5.8 5.68 -9.84 5.68 z M53.324999999999996 16.08 c-1.8 0 -3.44 0.44 -4.96 1.32 c-3.08 1.76 -4.96 4.92 -4.96 8.56 c0 1.76 0.44 3.4 1.36 4.92 c1.76 3.08 4.88 5 8.56 5 c1.8 0 3.44 -0.44 4.96 -1.36 c3 -1.76 4.92 -5.04 4.92 -8.56 c0 -1.8 -0.44 -3.48 -1.32 -5 c-1.76 -3.04 -5.08 -4.88 -8.56 -4.88 z M53.324999999999996 34.68 c-1.56 0 -3.04 -0.4 -4.36 -1.16 c-2.68 -1.56 -4.4 -4.52 -4.4 -7.56 c0 -1.56 0.4 -3.04 1.2 -4.4 c1.56 -2.72 4.32 -4.28 7.56 -4.28 c1.56 0 3 0.4 4.32 1.16 c2.68 1.56 4.24 4.28 4.24 7.52 c0 1.6 -0.36 3.04 -1.08 4.36 c-1.48 2.64 -4.32 4.36 -7.48 4.36 z M53.324999999999996 18.72 c-1.28 0 -2.48 0.32 -3.6 0.96 c-2.24 1.32 -3.68 3.68 -3.68 6.28 c0 1.28 0.32 2.48 0.96 3.56 c1.28 2.24 3.6 3.6 6.32 3.6 c1.32 0 2.56 -0.32 3.64 -0.96 c2.2 -1.28 3.52 -3.64 3.52 -6.2 c0 -1.32 -0.32 -2.52 -0.96 -3.64 c-1.28 -2.24 -3.64 -3.6 -6.2 -3.6 z M72.73 12 l6.96 0 l0 9.24 l-1.48 0 l0 -7.76 l-4.04 0 l0 25.04 l4.04 0 l0 -7.72 l1.48 0 l0 9.2 l-6.96 0 l0 -28 z M75.49000000000001 14.64 l1.44 0 l0 7.84 l12.2 0 l0 -10.48 l1.4 0 l0 11.88 l-15.04 0 l0 -9.24 z M94.81 13.48 l-1.36 0 l0 10.52 l-1.44 0 l0 -12 l4.2 0 l0 28 l-1.4 0 l0 -26.52 z M89.13000000000001 29.52 l-12.2 0 l0 8.04 l-1.48 0 l0 -9.52 l15.08 0 l0 10.48 l1.48 0 l0 -11.8 l-16.56 0 l0 -1.4 l18 0 l0 14.68 l-4.32 0 l0 -10.48 z M108.015 37.52 l1.76 0 l1.4 -3.36 l10.44 0.04 l2.56 5.8 l7.36 -0.04 l-12.6 -27.96 l-2.56 0 l-12.52 27.96 l7.8 0 l1.36 -3.2 l7.96 0 l-0.6 -1.36 l-8.24 0 l-1.28 3.16 l-4.76 0 l11.08 -25.2 l0.96 0 l11.12 25.2 l-4.24 0 l-2.56 -5.72 l-12.4 0 z M112.775 30.48 l4.88 -11.64 l8.2 18.64 l1.64 0 l-9.84 -21.92 l-7.2 16.16 l11.6 0 l-4.4 -9.72 l-3.04 7.32 l1.56 0 l1.48 -3.64 l2.2 4.8 l-7.08 0 z M145.42 11.96 l11.6 21.8 l4.84 -8.96 l2.32 15.2 l1.44 0 l-3 -19.68 l-5.6 10.36 l-9.96 -18.72 l-1.64 0 z M158.18 22.72 l-1.88 3.48 l0.84 1.52 l2.64 -5 l3.52 -6.56 l0.12 -0.28 l1.32 -2.44 l0.96 0 l0.12 0.96 l3 19.52 l0.68 4.6 l-1.32 0 l-3.04 -19.8 l-0.36 -2.4 l-1.12 2.12 l3.2 20.96 l-0.04 0 l0.12 0.6 l4.24 0 l-4.24 -28.04 l-3.08 0 z M155.74 34.12 l-11.48 -21.64 l-0.24 -0.4 l-4.24 27.92 l7 0 l1.28 -8.28 l-0.84 -1.56 l-0.32 -0.6 l-1.36 8.96 l-4.08 0 l3.36 -21.92 l12.24 23.04 l4.36 -8.28 l-0.32 -2.12 l-0.04 -0.28 l-4 7.6 z M146.26 25.240000000000002 l7.84 14.76 l1.64 0 l-10.24 -19.24 l-2.6 16.72 l1.44 0 z M179.025 12.079999999999998 l1.44 0 l0 26.48 l15.32 0 l0 -4 l-11.28 0 l0 -3.84 l1.44 0 l0 2.4 l11.28 0 l0 6.88 l-18.2 0 l0 -27.92 z M181.745 12.079999999999998 l15.28 0 l0 6.84 l-9.6 0 l0 -1.44 l8.16 0 l0 -3.96 l-12.4 0 l0 11.56 l9.32 0 l0 1.44 l-10.76 0 l0 -14.44 z M181.745 27.8 l12.16 0 l0 -4 l-9.4 0 l0 -9.08 l9.68 0 l0 1.44 l-8.24 0 l0 6.2 l9.4 0 l0 6.88 l-12.16 0 l0 6.64 l11.2 0 l0 1.44 l-12.64 0 l0 -9.52 z M227.03000000000003 16.04 c-2.4 -2.52 -5.48 -4 -8.48 -4 l-11.72 0 l0 1.44 l11.72 0.04 c1.88 0 3.68 0.6 5.4 1.76 c3.36 2.36 5.6 6.6 5.6 10.72 c0 2.16 -0.48 4.16 -1.48 6.04 c-2 3.72 -6.04 6.44 -9.52 6.44 l-10.28 0 l0 -22.44 l9.96 0.04 c1.44 0 2.84 0.44 4.16 1.36 c2.68 1.8 4.44 5.24 4.44 8.56 c0 2.44 -1.04 4.96 -2.92 6.92 c-1.76 1.76 -3.88 2.88 -5.64 2.88 l-4.56 0 l0.04 -15.8 l-1.4 0 l-0.04 16.52 l0 0.72 l5.96 0 c2.2 0 4.76 -1.24 6.72 -3.32 c2.12 -2.28 3.28 -5.08 3.28 -7.92 c0 -2.88 -1.12 -5.76 -3.16 -8 c-2.2 -2.2 -4.6 -3.4 -6.88 -3.4 l-11.4 0 l0 25.36 l11.72 0 c2.88 0 6 -1.48 8.36 -4 c2.6 -2.68 4.04 -6.24 4.04 -9.96 s-1.36 -7.24 -3.92 -9.96 z M218.11 34.519999999999996 c1.12 0 2.28 -0.44 3.52 -1.28 c2.44 -1.72 4 -4.6 4 -7.28 c0 -1.44 -0.36 -2.84 -1.04 -4.2 c-1.4 -2.68 -3.92 -4.36 -6.48 -4.36 l-8.6 0.04 l0.04 19.88 l1.44 0 l0 -18.48 l7.12 -0.04 c0.92 0 1.88 0.36 2.88 1.04 c2.04 1.44 3.2 3.68 3.2 6.12 c0 1.64 -0.76 3.48 -2 4.88 s-2.76 2.24 -4.08 2.24 l-2.84 0 l0 1.44 l2.84 0 z M277.2 13.440000000000001 l-12.52 23.84 l1.72 0 l13.16 -25.28 l-17.36 0 l0 1.44 l15 0 z M267.76 37.28 l9.92 0 l0 -1.44 l-7.52 0 l12.48 -23.84 l-1.64 0 z M279.04 34.64 l0 3.92 l-16.44 0 l12.56 -23.96 l-12.96 0 l0 4.16 l7.76 0 l0.72 -1.44 l-7.04 0 l0 -1.28 l9.12 0 l-12.52 23.96 l20.24 0 l0 -6.8 l-7.44 0 l-0.76 1.44 l6.76 0 z M294.64500000000004 37.52 l1.76 0 l1.4 -3.36 l10.44 0.04 l2.56 5.8 l7.36 -0.04 l-12.6 -27.96 l-2.56 0 l-12.52 27.96 l7.8 0 l1.36 -3.2 l7.96 0 l-0.6 -1.36 l-8.24 0 l-1.28 3.16 l-4.76 0 l11.08 -25.2 l0.96 0 l11.12 25.2 l-4.24 0 l-2.56 -5.72 l-12.4 0 z M299.40500000000003 30.48 l4.88 -11.64 l8.2 18.64 l1.64 0 l-9.84 -21.92 l-7.2 16.16 l11.6 0 l-4.4 -9.72 l-3.04 7.32 l1.56 0 l1.48 -3.64 l2.2 4.8 l-7.08 0 z M340.57000000000005 40 c-2.48 0 -4.8 -0.64 -6.92 -1.92 c-4.32 -2.52 -7.04 -7.28 -7.04 -12.04 c0 -2.48 0.64 -4.84 1.92 -7.04 c2.56 -4.44 6.96 -6.96 12.04 -6.96 c3.48 0 6.84 1.32 9.4 3.68 c0.08 0.04 0.2 0.12 0.32 0.24 l0.28 0.32 l-1 1.04 l-0.56 -0.56 c-2.28 -2.12 -5.28 -3.28 -8.44 -3.28 c-2.24 0 -4.32 0.56 -6.24 1.68 c-3.88 2.24 -6.28 6.4 -6.28 10.88 c0 2.24 0.56 4.32 1.68 6.24 c2.24 3.88 6.36 6.28 10.84 6.28 c2.72 0 4.8 -0.76 8.2 -2.96 l0 -9.2 l-8.76 0 l0 -1.44 l10.16 0 l0 11.4 l-0.28 0.24 c-3.56 2.44 -6.12 3.4 -9.32 3.4 z M340.57000000000005 37.28 c-2 0 -3.88 -0.52 -5.6 -1.52 c-3.52 -2.04 -5.68 -5.72 -5.68 -9.72 c0 -2.04 0.52 -3.96 1.52 -5.72 c2.04 -3.48 5.64 -5.56 9.76 -5.56 c2.28 0 4.48 0.72 6.6 2.12 l1.04 0.8 l0.52 0.52 l-2.88 3.12 l-1.28 -1 c-1.16 -0.84 -2.52 -1.28 -4 -1.28 c-1.2 0 -2.36 0.32 -3.44 0.92 c-2.2 1.28 -3.52 3.52 -3.52 6.08 c0 1.2 0.32 2.36 0.96 3.44 c1.24 2.2 3.48 3.52 6 3.52 c1 0 1.92 -0.2 2.76 -0.64 l0 -0.64 l-3.32 0 l0 -4.08 l7.48 0 l0 7.12 l-0.92 0.72 c-1.8 1.24 -3.64 1.8 -6 1.8 z M340.57000000000005 16.2 c-1.76 0 -3.4 0.44 -4.92 1.32 c-3.04 1.76 -4.92 5 -4.92 8.52 c0 1.76 0.44 3.4 1.32 4.88 c1.76 3.04 5 4.92 8.52 4.92 c1.96 0 3.72 -0.52 5.2 -1.52 l0.28 -0.24 l0 -5 l-4.6 0 l0 1.2 l3.32 0 l0 3 l-0.4 0.2 c-1.32 0.64 -2.56 0.96 -3.8 0.96 c-1.44 0 -2.84 -0.4 -4.16 -1.16 c-2.68 -1.56 -4.24 -4.16 -4.24 -7.24 c0 -1.52 0.36 -2.92 1.12 -4.24 c1.48 -2.56 4.2 -4.16 7.28 -4.16 c1.72 0 3.36 0.52 4.84 1.52 l0.28 0.2 l0.96 -1.04 l-0.32 -0.24 c-1.72 -1.24 -3.64 -1.88 -5.76 -1.88 z M358.975 12 l6.96 0 l0 9.24 l-1.48 0 l0 -7.76 l-4.04 0 l0 25.04 l4.04 0 l0 -7.72 l1.48 0 l0 9.2 l-6.96 0 l0 -28 z M361.735 14.64 l1.44 0 l0 7.84 l12.2 0 l0 -10.48 l1.4 0 l0 11.88 l-15.04 0 l0 -9.24 z M381.055 13.48 l-1.36 0 l0 10.52 l-1.44 0 l0 -12 l4.2 0 l0 28 l-1.4 0 l0 -26.52 z M375.375 29.52 l-12.2 0 l0 8.04 l-1.48 0 l0 -9.52 l15.08 0 l0 10.48 l1.48 0 l0 -11.8 l-16.56 0 l0 -1.4 l18 0 l0 14.68 l-4.32 0 l0 -10.48 z M390.5 11.96 l4.12 0 l0 25.4 l-1.48 0 l0 -23.96 l-1.2 0 l0 25.16 l13.16 0 l0 -3.84 l-6.52 0 l0 -1.44 l7.96 0 l0 6.72 l-16.04 0 l0 -28.04 z M395.94 11.96 l1.44 0 l0 23.92 l6.44 0 l0 1.48 l-7.88 0 l0 -25.4 z M428.865 40 c-2.44 0 -4.76 -0.64 -6.96 -1.92 c-4.4 -2.52 -7.12 -7.16 -7.12 -12.12 c0 -2.48 0.64 -4.8 1.92 -7 c2.52 -4.32 7.24 -7.04 12.16 -7.04 c2.44 0 4.8 0.64 7 1.88 c4.4 2.56 7.04 7.32 7.04 12.16 c0 2.44 -0.64 4.72 -1.88 6.92 c-2.56 4.4 -7.2 7.12 -12.16 7.12 z M428.865 13.32 c-2.28 0 -4.4 0.56 -6.32 1.68 c-3.88 2.24 -6.28 6.36 -6.28 10.96 c0 2.28 0.56 4.4 1.68 6.32 c2.24 3.88 6.32 6.28 10.92 6.28 c2.28 0 4.4 -0.56 6.36 -1.68 c3.88 -2.24 6.28 -6.32 6.28 -10.92 c0 -2.28 -0.56 -4.4 -1.68 -6.36 c-2.24 -3.88 -6.48 -6.28 -10.96 -6.28 z M428.865 37.28 c-2 0 -3.88 -0.52 -5.68 -1.52 c-3.56 -2.04 -5.76 -5.76 -5.76 -9.8 c0 -2.04 0.52 -3.92 1.52 -5.68 c2.04 -3.52 5.64 -5.6 9.92 -5.6 c2.16 0 4.12 0.48 5.84 1.44 c3.44 1.92 5.44 5.52 5.44 9.84 c0 2.04 -0.48 3.92 -1.44 5.64 c-1.96 3.48 -5.8 5.68 -9.84 5.68 z M428.865 16.08 c-1.8 0 -3.44 0.44 -4.96 1.32 c-3.08 1.76 -4.96 4.92 -4.96 8.56 c0 1.76 0.44 3.4 1.36 4.92 c1.76 3.08 4.88 5 8.56 5 c1.8 0 3.44 -0.44 4.96 -1.36 c3 -1.76 4.92 -5.04 4.92 -8.56 c0 -1.8 -0.44 -3.48 -1.32 -5 c-1.76 -3.04 -5.08 -4.88 -8.56 -4.88 z M428.865 34.68 c-1.56 0 -3.04 -0.4 -4.36 -1.16 c-2.68 -1.56 -4.4 -4.52 -4.4 -7.56 c0 -1.56 0.4 -3.04 1.2 -4.4 c1.56 -2.72 4.32 -4.28 7.56 -4.28 c1.56 0 3 0.4 4.32 1.16 c2.68 1.56 4.24 4.28 4.24 7.52 c0 1.6 -0.36 3.04 -1.08 4.36 c-1.48 2.64 -4.32 4.36 -7.48 4.36 z M428.865 18.72 c-1.28 0 -2.48 0.32 -3.6 0.96 c-2.24 1.32 -3.68 3.68 -3.68 6.28 c0 1.28 0.32 2.48 0.96 3.56 c1.28 2.24 3.6 3.6 6.32 3.6 c1.32 0 2.56 -0.32 3.64 -0.96 c2.2 -1.28 3.52 -3.64 3.52 -6.2 c0 -1.32 -0.32 -2.52 -0.96 -3.64 c-1.28 -2.24 -3.64 -3.6 -6.2 -3.6 z M463.27 40 c-3.88 0 -6.84 -1 -8.8 -3 c-1.92 -1.92 -2.92 -4.76 -2.92 -8.12 l0 -16.84 l6.8 0 l0 16.84 c0 3.04 1.48 4.32 4.72 4.32 c3.16 0 4.88 -1.56 4.88 -4.32 l0 -16.84 l4.12 0 l0 16.84 c0 2.12 -0.56 4.12 -1.64 5.56 c-1.44 1.96 -3.72 2.88 -7.24 2.88 c-2.04 0 -3.68 -0.28 -4.92 -0.88 c-2.52 -1.16 -4.04 -3.76 -4.04 -7.56 l0 -14.28 l1.44 0 l0 14.28 c0 4.52 2.6 7 7.52 7 s7.44 -2.48 7.44 -7 l0 -15.4 l-1.24 0 l0 15.4 c0 3.52 -2.36 5.76 -6.32 5.76 c-4 0 -6.12 -2.04 -6.12 -5.76 l0 -15.4 l-3.96 0 l0 15.4 c0 6.36 3.52 9.68 10.28 9.68 c3.52 0 5.92 -0.84 7.56 -2.56 s2.52 -4.2 2.52 -7.12 l0 -16.84 l1.44 0 l0 16.84 c0 3.36 -1.04 6.16 -2.96 8.12 c-1.92 2 -4.76 3 -8.56 3 z M483.235 11.96 l4.12 0 l0 25.4 l-1.48 0 l0 -23.96 l-1.2 0 l0 25.16 l13.16 0 l0 -3.84 l-6.52 0 l0 -1.44 l7.96 0 l0 6.72 l-16.04 0 l0 -28.04 z M488.675 11.96 l1.44 0 l0 23.92 l6.44 0 l0 1.48 l-7.88 0 l0 -25.4 z"/></g>
			</g>
		</svg>
	